#!OML:ASF F:\VICON\USERDATA\INSTALL\Justin_Nancy\Justin_Nancy.ASF
:FULLY-SPECIFIED
:DEGREES
127
root 13.0165 17.6751 -8.84825 0.655979 -0.942787 -2.97712
lowerback 7.88499 0.764836 3.00162
upperback 0.488437 1.41145 3.09408
thorax -3.92488 0.672661 1.36372
lowerneck -16.8158 -3.83587 -9.63018
upperneck 22.4677 -4.22827 6.06337
head 10.3031 -2.06744 3.18095
rclavicle -2.48481e-015 -1.27222e-014
rhumerus -26.5645 -11.4808 -80.8981
rradius 30.2289
rwrist 6.64764
rhand -13.7372 11.1945
rfingers 7.12502
rthumb 12.3825 -18.4188
lclavicle -2.48481e-015 -1.27222e-014
lhumerus -30.4653 11.1511 84.7129
lradius 27.189
lwrist -7.02237
lhand -15.8614 25.1025
lfingers 7.12502
lthumb 10.3338 54.8286
rfemur -3.22858 2.48404 30.9408
rtibia 15.2045
rfoot -8.81246 -1.32845
rtoes 7.38964
lfemur -29.6316 4.63609 -14.8656
ltibia 62.5035
lfoot -2.61417 2.19358
ltoes 0.110519
128
root 13.024 17.6705 -8.73636 0.668008 -1.06198 -3.0256
lowerback 8.00922 0.814137 3.07372
upperback 0.442554 1.49225 3.09762
thorax -4.04088 0.710117 1.31621
lowerneck -17.0428 -3.53532 -9.3148
upperneck 22.0495 -3.85822 6.07286
head 10.1535 -1.86139 3.17615
rclavicle 1.59525e-014 -1.59028e-015
rhumerus -26.3668 -11.0524 -81.0215
rradius 30.5533
rwrist 6.49949
rhand -13.8193 12.2043
rfingers 7.12502
rthumb 12.3034 -17.4137
lclavicle 1.59525e-014 -1.59028e-015
lhumerus -30.7003 11.36 84.6511
lradius 26.1107
lwrist -5.33575
lhand -20.1386 17.8665
lfingers 7.12502
lthumb 6.206 47.7556
rfemur -3.12321 2.47813 30.9561
rtibia 15.7484
rfoot -9.34839 -1.25512
rtoes 8.86284
lfemur -30.0314 4.08614 -14.7602
ltibia 61.0415
lfoot -3.61378 2.85049
ltoes -1.24503
129
root 13.0323 17.6526 -8.61941 0.743643 -1.14899 -3.09963
lowerback 8.09945 0.813645 3.15452
upperback 0.334814 1.50883 3.09866
thorax -4.20182 0.714763 1.26858
lowerneck -16.4001 -3.67671 -9.74254
upperneck 22.4462 -4.03901 6.16254
head 10.2035 -1.98507 3.26525
rclavicle -1.93815e-015 -3.4191e-014
rhumerus -26.2255 -10.3455 -81.2197
rradius 30.9661
rwrist 6.12983
rhand -13.8161 11.9776
rfingers 7.12502
rthumb 12.3064 -17.6403
lclavicle -1.93815e-015 -3.4191e-014
lhumerus -31.1428 12.1123 84.1364
lradius 27.3361
lwrist -10.1589
lhand -14.2397 23.9082
lfingers 7.12502
lthumb 11.898 53.5501
rfemur -2.88074 2.48199 31.0417
rtibia 15.9972
rfoot -9.74083 -1.37036
rtoes 7.87078
lfemur -30.3339 3.60178 -14.6254
ltibia 59.4497
lfoot -5.76865 2.90667
ltoes -4.83037
130
root 13.042 17.6295 -8.5044 0.837512 -1.14061 -3.21003
lowerback 8.11566 0.776603 3.28528
upperback 0.33143 1.47387 3.12794
thorax -4.21208 0.694999 1.22959
lowerneck -16.5349 -3.842 -9.87431
upperneck 22.3122 -4.219 6.17105
head 10.2016 -2.07473 3.26145
rclavicle 7.20594e-015 1.43125e-014
rhumerus -26.0142 -9.63101 -81.4331
rradius 31.6652
rwrist 5.64071
rhand -13.5445 11.3164
rfingers 7.12502
rthumb 12.5683 -18.2855
lclavicle 7.20594e-015 1.43125e-014
lhumerus -31.4429 11.7898 84.281
lradius 25.7445
lwrist -5.33853
lhand -21.0874 14.3528
lfingers 7.12502
lthumb 5.28997 44.2668
rfemur -2.60454 2.44543 31.1662
rtibia 16.1662
rfoot -10.1466 -1.50134
rtoes 6.9458
lfemur -30.6902 3.05465 -14.4221
ltibia 57.6717
lfoot -5.23977 4.74915
ltoes -2.32322
131
root 13.0541 17.619 -8.38697 0.866291 -1.05583 -3.18327
lowerback 8.06236 0.729868 3.36936
upperback 0.42577 1.40965 3.07825
thorax -4.0806 0.662939 1.13908
lowerneck -17.32 -3.34487 -9.39573
upperneck 22.1098 -3.55571 6.12704
head 10.2033 -1.71903 3.25212
rclavicle 9.93923e-017 1.11319e-014
rhumerus -25.5726 -9.2069 -81.6423
rradius 32.1001
rwrist 5.42748
rhand -13.5863 11.6358
rfingers 7.12502
rthumb 12.528 -17.9687
lclavicle 9.93923e-017 1.11319e-014
lhumerus -31.3431 11.9301 84.2288
lradius 26.8489
lwrist -8.79497
lhand -15.3933 27.77
lfingers 7.12502
lthumb 10.7854 57.4731
rfemur -2.23519 2.24373 31.1033
rtibia 16.2655
rfoot -10.6087 -1.46888
rtoes 6.30824
lfemur -30.9879 2.23756 -14.3214
ltibia 55.6369
lfoot -6.03647 4.66489
ltoes -4.04294
132
root 13.065 17.6134 -8.26691 0.943159 -1.05538 -3.18846
lowerback 7.9384 0.756047 3.43971
upperback 0.484784 1.43956 3.04694
thorax -3.94693 0.677998 1.06551
lowerneck -16.7129 -3.80591 -9.82751
upperneck 22.5184 -4.15835 6.12628
head 10.3021 -2.04712 3.24843
rclavicle 7.8023e-015 4.77083e-015
rhumerus -25.2499 -8.66041 -81.7942
rradius 32.6321
rwrist 4.90514
rhand -13.704 11.8008
rfingers 7.12502
rthumb 12.4145 -17.8105
lclavicle 7.8023e-015 4.77083e-015
lhumerus -31.086 12.5817 83.9922
lradius 26.0224
lwrist -9.71096
lhand -15.1279 28.4429
lfingers 7.12502
lthumb 11.0414 58.1325
rfemur -1.88403 2.10084 31.0836
rtibia 16.2603
rfoot -10.9199 -1.45812
rtoes 5.85306
lfemur -31.1797 1.58481 -14.1756
ltibia 53.4725
lfoot -6.80166 5.04372
ltoes -5.48325
133
root 13.0749 17.597 -8.15145 1.06452 -1.09837 -3.39501
lowerback 8.01586 0.79882 3.63534
upperback 0.356734 1.52775 3.11466
thorax -4.12036 0.715879 1.01502
lowerneck -17.1489 -3.48484 -9.42693
upperneck 22.1517 -3.73697 6.02961
head 10.2017 -1.81937 3.19781
rclavicle 1.09332e-015 3.02153e-014
rhumerus -25.3321 -7.98936 -81.824
rradius 33.2748
rwrist 4.5928
rhand -13.9176 11.8467
rfingers 7.12502
rthumb 12.2086 -17.777
lclavicle 1.09332e-015 3.02153e-014
lhumerus -31.2465 13.0147 83.8041
lradius 25.593
lwrist -10.8335
lhand -14.234 29.6922
lfingers 7.12502
lthumb 11.9035 59.3338
rfemur -1.6036 2.17088 31.3203
rtibia 16.1886
rfoot -11.0217 -1.61098
rtoes 5.97056
lfemur -31.3178 1.19811 -13.8278
ltibia 51.22
lfoot -7.44195 5.52982
ltoes -7.9127
134
root 13.0824 17.5843 -8.03786 1.06752 -1.09643 -3.66866
lowerback 8.25473 0.828199 3.91768
upperback 0.269858 1.61459 3.17136
thorax -4.33879 0.750298 0.902339
lowerneck -16.4273 -4.01896 -9.98734
upperneck 22.6019 -4.43606 6.0842
head 10.3077 -2.19884 3.22353
rclavicle 5.46658e-016 4.05521e-014
rhumerus -25.3513 -7.54202 -81.884
rradius 33.7282
rwrist 4.45534
rhand -13.9868 11.8035
rfingers 7.12502
rthumb 12.1419 -17.8241
lclavicle 5.46658e-016 4.05521e-014
lhumerus -31.338 13.5401 83.507
lradius 25.4102
lwrist -13.0534
lhand -11.252 32.7733
lfingers 7.12502
lthumb 14.7777 62.2265
rfemur -1.14548 2.16616 31.6276
rtibia 16.0849
rfoot -11.2315 -1.72899
rtoes 5.95831
lfemur -31.2449 0.742811 -13.3773
ltibia 48.8587
lfoot -7.32252 6.14973
ltoes -7.24038
135
root 13.0894 17.5844 -7.91925 1.10048 -1.07775 -3.6813
lowerback 8.24766 0.84612 3.95129
upperback 0.310391 1.63798 3.14907
thorax -4.29061 0.761892 0.857869
lowerneck -17.3154 -3.50332 -9.29561
upperneck 22.3634 -3.7543 5.88523
head 10.3056 -1.83244 3.12395
rclavicle 4.91992e-015 1.35174e-014
rhumerus -25.1464 -7.19813 -81.9828
rradius 34.2147
rwrist 4.11025
rhand -13.8943 11.7366
rfingers 7.12502
rthumb 12.231 -17.8857
lclavicle 4.91992e-015 1.35174e-014
lhumerus -31.3797 13.8498 83.4041
lradius 25.1198
lwrist -12.7761
lhand -11.1254 31.9933
lfingers 7.12502
lthumb 14.8997 61.4375
rfemur -0.729767 2.04335 31.621
rtibia 16.0712
rfoot -11.5221 -1.73066
rtoes 5.46513
lfemur -31.0748 0.160427 -13.24
ltibia 46.4382
lfoot -7.20426 6.80065
ltoes -6.02264
136
root 13.0995 17.5826 -7.78939 1.32263 -1.09753 -3.48971
lowerback 7.8494 0.901025 3.77417
upperback 0.250596 1.67032 3.08688
thorax -4.13169 0.782813 0.894504
lowerneck -16.1864 -3.86611 -9.85535
upperneck 22.5486 -4.29268 6.13571
head 10.2261 -2.11873 3.24178
rclavicle 3.23025e-015 -7.95139e-016
rhumerus -25.246 -6.83138 -81.9936
rradius 34.8735
rwrist 3.81357
rhand -13.8314 11.9165
rfingers 7.12502
rthumb 12.2917 -17.7023
lclavicle 3.23025e-015 -7.95139e-016
lhumerus -31.7819 13.8299 83.4176
lradius 25.0807
lwrist -11.6623
lhand -11.9915 31.2473
lfingers 7.12502
lthumb 14.0652 60.7514
rfemur -0.511544 1.99413 31.3807
rtibia 16.0967
rfoot -11.9021 -1.84915
rtoes 4.95317
lfemur -30.9661 -0.356958 -13.3856
ltibia 43.9595
lfoot -7.64038 6.79778
ltoes -7.99058
137
root 13.1119 17.5644 -7.66424 1.63912 -0.970484 -3.56744
lowerback 7.39142 0.86564 3.8451
upperback 0.218375 1.60417 3.11941
thorax -3.90775 0.751975 0.902915
lowerneck -16.8079 -3.51922 -9.35943
upperneck 22.3292 -3.84469 6.03261
head 10.2088 -1.86969 3.17727
rclavicle -4.42296e-015 4.21423e-014
rhumerus -25.1627 -6.28494 -82.0651
rradius 35.5157
rwrist 3.36276
rhand -13.7027 11.6209
rfingers 7.12502
rthumb 12.4157 -17.9904
lclavicle -4.42296e-015 4.21423e-014
lhumerus -31.9831 14.3294 83.2394
lradius 24.6792
lwrist -11.455
lhand -13.6913 28.2094
lfingers 7.12502
lthumb 12.4267 57.82
rfemur -0.380532 1.92384 31.4399
rtibia 16.0868
rfoot -12.2894 -2.01399
rtoes 5.14935
lfemur -31.1095 -0.925481 -13.1597
ltibia 41.4875
lfoot -7.63775 7.45128
ltoes -11.4738
